<?xml version="1.0" encoding="UTF-8"?>
<svg version="1.1" xmlns="http://www.w3.org/2000/svg" width="200" height="200">
<path d="M0 0 C15.01786457 11.47744349 25.3428831 27.39230041 28.34765625 46.1875 C30.52275398 74.47919676 21.46436914 93.09815527 3.34765625 114.3125 C-27.55929869 150.07458916 -27.55929869 150.07458916 -39.83984375 152.25 C-46.44136679 152.14177831 -50.36399849 148.84101077 -55.02734375 144.4375 C-58.25623804 141.42270019 -61.48387826 138.43525942 -64.83984375 135.5625 C-71.69219835 129.5736535 -77.67832748 123.13500659 -83.3671875 116.03125 C-84.85614738 114.17832215 -86.3683085 112.34372872 -87.90625 110.53125 C-104.56699065 90.82811323 -111.29536443 72.17587888 -109.65234375 46.1875 C-107.25694485 27.47222895 -96.33548668 11.54945584 -81.65234375 0.1875 C-56.76537016 -16.10754223 -24.78595279 -16.93767613 0 0 Z " fill="#8755FF" transform="translate(140.65234375,11.8125)"/>
<path d="M0 0 C0.80695313 -0.01933594 1.61390625 -0.03867188 2.4453125 -0.05859375 C6.58874035 -0.02440705 8.37465884 0.06036221 11.53515625 2.9140625 C13.58250155 6.7030162 13.71486248 9.42943809 13 13.625 C11.6875 16.4375 11.6875 16.4375 10 18.625 C9.61199219 19.15480469 9.22398438 19.68460938 8.82421875 20.23046875 C4.63199095 23.4352339 -2.02645586 22.25905416 -7 21.625 C-10.54540611 19.814137 -11.74886034 17.37841898 -13 13.625 C-13.56077576 6.67138052 -13.56077576 6.67138052 -11.54296875 2.90625 C-7.85131935 -0.40546006 -4.80019057 -0.11502054 0 0 Z " fill="#6539FF" transform="translate(100,178.375)"/>
</svg>
