<?xml version="1.0" encoding="UTF-8"?>
<!-- Generator: visioncortex VTracer -->
<svg id="svg" version="1.1" xmlns="http://www.w3.org/2000/svg" style="display: block;"
    width="512" height="512" viewBox="10 10 40 40">
    <path d="M0 0 C1.32 0 2.64 0 4 0 C4 9.9 4 19.8 4 30 C2.68 30 1.36 30 0 30 C0 20.1 0 10.2 0 0 Z "
        transform="translate(28,15)" style="fill: #FE7268;" />
    <path
        d="M0 0 C0 6.93 0 13.86 0 21 C-4 21 -4 21 -5 20 C-5.09860131 18.59651265 -5.13078937 17.18819523 -5.1328125 15.78125 C-5.13410156 14.93175781 -5.13539062 14.08226562 -5.13671875 13.20703125 C-5.13285156 12.31371094 -5.12898438 11.42039062 -5.125 10.5 C-5.12886719 9.60667969 -5.13273437 8.71335937 -5.13671875 7.79296875 C-5.13542969 6.94347656 -5.13414063 6.09398437 -5.1328125 5.21875 C-5.13168457 4.43435547 -5.13055664 3.64996094 -5.12939453 2.84179688 C-4.87601356 -0.76481824 -3.78092357 0 0 0 Z "
        transform="translate(24,27)" style="fill: #FA65EF;" />
    <path
        d="M0 0 C1.32 0.66 2.64 1.32 4 2 C4 8.27 4 14.54 4 21 C2.35 21.33 0.7 21.66 -1 22 C-1.02887814 18.52085059 -1.04675687 15.04173169 -1.0625 11.5625 C-1.07087891 10.56927734 -1.07925781 9.57605469 -1.08789062 8.55273438 C-1.09111328 7.60849609 -1.09433594 6.66425781 -1.09765625 5.69140625 C-1.10289307 4.81685791 -1.10812988 3.94230957 -1.11352539 3.04125977 C-1 1 -1 1 0 0 Z "
        transform="translate(37,11)" style="fill: #FEA958;" />
    <path
        d="M0 0 C2.0625 0.4375 2.0625 0.4375 4 1 C4 3.31 4 5.62 4 8 C2.0625 8.5625 2.0625 8.5625 0 9 C-1 8 -1 8 -1.125 4.5 C-1 1 -1 1 0 0 Z "
        transform="translate(12,34)" style="fill: #E42EFE;" />
    <path
        d="M0 0 C2.0625 0.4375 2.0625 0.4375 4 1 C4 3.31 4 5.62 4 8 C2.0625 8.5625 2.0625 8.5625 0 9 C-1 8 -1 8 -1.125 4.5 C-1 1 -1 1 0 0 Z "
        transform="translate(45,17)" style="fill: #FEA84A;" />
    <path
        d="M0 0 C1.98 0.99 1.98 0.99 4 2 C4 4.64 4 7.28 4 10 C2.68 10 1.36 10 0 10 C0 6.7 0 3.4 0 0 Z "
        transform="translate(20,38)" style="fill: #D515FE;" />
    <path
        d="M0 0 C0.99 0 1.98 0 3 0 C4.60725635 3.21451269 4.05748185 6.43612536 4 10 C2.68 10 1.36 10 0 10 C0 6.7 0 3.4 0 0 Z "
        transform="translate(36,23)" style="fill: #FE795E;" />
    <path
        d="M0 0 C1.98 0.99 1.98 0.99 4 2 C4 4.64 4 7.28 4 10 C2.68 10 1.36 10 0 10 C0 6.7 0 3.4 0 0 Z "
        transform="translate(28,35)" style="fill: #FB3FFA;" />
    <path
        d="M0 0 C1.32 0 2.64 0 4 0 C4 3.96 4 7.92 4 12 C2 8 2 8 2 5 C1.34 5 0.68 5 0 5 C0 3.35 0 1.7 0 0 Z "
        transform="translate(28,15)" style="fill: #FE8E51;" />
    <path
        d="M0 0 C1.32 0.33 2.64 0.66 4 1 C4 3.31 4 5.62 4 8 C2.68 7.34 1.36 6.68 0 6 C0 4.02 0 2.04 0 0 Z "
        transform="translate(28,29)" style="fill: #FE75B3;" />
    <path
        d="M0 0 C1.32 0 2.64 0 4 0 C4 1.98 4 3.96 4 6 C2.68 5.34 1.36 4.68 0 4 C0 2.68 0 1.36 0 0 Z "
        transform="translate(20,27)" style="fill: #FE75C1;" />
    <path
        d="M0 0 C1.98 0.99 1.98 0.99 4 2 C4 3.32 4 4.64 4 6 C2.68 5.67 1.36 5.34 0 5 C0 3.35 0 1.7 0 0 Z "
        transform="translate(28,35)" style="fill: #FE55DF;" />
    <path
        d="M0 0 C1.98 0.99 1.98 0.99 4 2 C4 3.32 4 4.64 4 6 C2.68 5.34 1.36 4.68 0 4 C0 2.68 0 1.36 0 0 Z "
        transform="translate(20,38)" style="fill: #ED26FE;" />
</svg>