<?xml version="1.0" encoding="UTF-8"?>
<svg version="1.1" xmlns="http://www.w3.org/2000/svg" width="512" height="512">
    <path
        d="M0 0 C1.74639466 1.6480791 3.45611502 3.33597692 5.125 5.0625 C5.91519531 5.83980469 6.70539063 6.61710937 7.51953125 7.41796875 C9.03507841 8.91802479 10.53802106 10.43093516 12.02734375 11.95703125 C14.52340356 14.46238737 17.15412956 16.75608534 19.8359375 19.05859375 C22.77462571 21.63119964 25.63636522 24.28192651 28.5 26.9375 C33.16690893 31.26269945 37.86781494 35.54515314 42.60546875 39.79296875 C47.99537666 44.64806409 53.32451805 49.57029542 58.66601562 54.47851562 C63.79973745 59.19475563 68.93747157 63.90532591 74.125 68.5625 C80.35069011 74.15169783 86.50553078 79.81774058 92.66601562 85.47851562 C98.59511371 90.92545071 104.53903278 96.35369762 110.5390625 101.72265625 C112.46590754 103.46613084 114.37495807 105.22222716 116.2734375 106.99609375 C117.0778125 107.74439453 117.0778125 107.74439453 117.8984375 108.5078125 C118.94107725 109.47924758 119.98033104 110.45433374 121.015625 111.43359375 C125.51853339 115.65297073 125.51853339 115.65297073 131.30053711 117.19775391 C132.4646814 117.11920166 132.4646814 117.11920166 133.65234375 117.0390625 C134.51980225 116.9872583 135.38726074 116.9354541 136.28100586 116.88208008 C137.19889893 116.81786865 138.11679199 116.75365723 139.0625 116.6875 C140.97905995 116.57755075 142.895728 116.46946954 144.8125 116.36328125 C145.73546875 116.30994629 146.6584375 116.25661133 147.609375 116.20166016 C154.67737696 115.81067014 161.47774848 115.78629708 168.48828125 116.828125 C178.61703443 118.69443277 178.61703443 118.69443277 188.2578125 116.4375 C190.51080472 114.11385646 192.29559095 111.72725565 194.125 109.0625 C195.9609375 107.3203125 195.9609375 107.3203125 197.875 105.75 C201.49417159 102.64270328 205.0029394 99.4304769 208.5 96.1875 C213.16421375 91.86479839 217.8619439 87.58433148 222.59765625 83.33984375 C225.45582184 80.76440242 228.29212083 78.16566201 231.125 75.5625 C234.75243489 72.22921251 238.39393076 68.91303693 242.0625 65.625 C245.94870598 62.13801903 249.79342807 58.60918015 253.625 55.0625 C258.24852611 50.78275045 262.90592335 46.54491392 267.59765625 42.33984375 C270.45582203 39.76440225 273.29210261 37.16564236 276.125 34.5625 C279.77427171 31.20956883 283.43669598 27.87251643 287.125 24.5625 C290.76883989 21.29119326 294.39162771 17.99784251 298 14.6875 C298.74431274 14.00506226 298.74431274 14.00506226 299.50366211 13.30883789 C302.15723588 10.87408032 304.8057137 8.43396774 307.44921875 5.98828125 C307.99143066 5.48796387 308.53364258 4.98764648 309.09228516 4.47216797 C310.13131615 3.51328261 311.16883104 2.55275098 312.20458984 1.59033203 C318.90893439 -4.58998421 324.06921785 -4.31737558 332.78753662 -4.04272461 C339.06395748 -3.7601816 345.30540919 -3.14122998 351.5480957 -2.44824219 C353.97900903 -2.18297035 356.41177847 -1.94678385 358.84570312 -1.7109375 C360.40383459 -1.54341302 361.96178645 -1.37420758 363.51953125 -1.203125 C364.24131058 -1.13627502 364.9630899 -1.06942505 365.70674133 -1.00054932 C370.66919951 -0.40864818 370.66919951 -0.40864818 372.81319004 1.80753469 C374.34143718 4.43454957 374.50168355 5.94125528 374.50531673 8.96323395 C374.51375668 9.95453229 374.52219662 10.94583064 374.53089231 11.96716833 C374.52488227 13.05392685 374.51887222 14.14068538 374.51268005 15.26037598 C374.52075836 16.99473711 374.52075836 16.99473711 374.52899987 18.76413584 C374.54084479 21.97413088 374.53920158 25.18379418 374.53183305 28.39379239 C374.52711032 31.85534163 374.53960321 35.31683473 374.54985046 38.77836609 C374.56706092 45.55973608 374.56787391 52.34101352 374.56263756 59.12239969 C374.55859912 64.63286364 374.56003552 70.14330018 374.56538582 75.65376282 C374.56613424 76.4374932 374.56688266 77.22122358 374.56765376 78.02870336 C374.56918521 79.62074531 374.57072356 81.21278725 374.57226873 82.80482918 C374.58600167 97.73984411 374.58055031 112.67480668 374.56908352 127.60982043 C374.55914827 141.28038611 374.5720954 154.9508165 374.59601771 168.62136132 C374.62038516 182.65175534 374.63002252 196.68208628 374.62336498 210.71250105 C374.61986777 218.59217227 374.62213792 226.47173939 374.63961601 234.35139465 C374.65430853 241.05852284 374.6550122 247.7654736 374.6375451 254.4725982 C374.62900855 257.89593315 374.6269496 261.31895077 374.64219666 264.74226952 C374.65530018 268.45002453 374.64395259 272.15690742 374.62620544 275.86462402 C374.63581045 276.95138255 374.64541546 278.03814107 374.65531152 279.15783167 C374.58335083 286.42626545 374.58335083 286.42626545 372.21873569 289.7085762 C370.09411029 291.08247497 368.43927887 291.84780515 365.984375 292.43457031 C365.17320221 292.63441025 364.36202942 292.83425018 363.52627563 293.04014587 C362.65135468 293.23830399 361.77643372 293.4364621 360.875 293.640625 C359.49723892 293.9659597 359.49723892 293.9659597 358.09164429 294.29786682 C355.10718866 294.9909138 352.11751308 295.65516653 349.125 296.3125 C347.60800507 296.65116592 347.60800507 296.65116592 346.06036377 296.99667358 C312.14667088 304.47651611 312.14667088 304.47651611 297.125 301.0625 C295.5109396 299.91756344 295.5109396 299.91756344 294.125 298.0625 C293.75141239 295.29945469 293.75141239 295.29945469 293.75318909 291.88221741 C293.74305283 289.94103279 293.74305283 289.94103279 293.73271179 287.96063232 C293.74026538 286.52331413 293.74807112 285.08599724 293.75610352 283.64868164 C293.75363605 282.13750435 293.74979819 280.62632876 293.74468994 279.11515808 C293.73634501 275.8591804 293.7371653 272.60337757 293.74487495 269.34739876 C293.75644185 264.20022081 293.74430904 259.05326859 293.72825623 253.90611267 C293.69203474 241.12103641 293.68583346 228.33596517 293.68835449 215.55084229 C293.69006448 205.61645576 293.68297892 195.68225304 293.64837593 185.74791807 C293.63155704 180.62995428 293.6333978 175.51243822 293.64919865 170.39447606 C293.65498751 167.21152452 293.64427015 164.02878619 293.62895203 160.84587288 C293.62521947 159.3688365 293.62835216 157.89176457 293.63882256 156.41476059 C293.6521557 154.39980036 293.63867404 152.38471564 293.62379456 150.36976624 C293.62400384 149.24170091 293.62421312 148.11363558 293.62442875 146.95138645 C293.01178562 143.40762483 291.91618536 142.25666306 289.125 140.0625 C285.99888803 138.82850843 284.63119943 138.86855673 281.484375 140.07421875 C276.96719776 142.74775737 273.49457064 146.16121048 269.75 149.8125 C268.30603484 151.20452397 266.86072837 152.59515796 265.4140625 153.984375 C264.70233887 154.66806152 263.99061523 155.35174805 263.25732422 156.05615234 C260.56702157 158.58751337 257.79341857 161.01081513 255.00048828 163.42773438 C252.19564276 165.87257239 249.4729439 168.40225707 246.75 170.9375 C242.08998919 175.25806212 237.39713033 179.53711922 232.66015625 183.7734375 C230.79986987 185.45314138 228.95520766 187.14375856 227.12109375 188.8515625 C224.14855667 191.6185989 221.14737398 194.34989842 218.125 197.0625 C217.37992187 197.7328125 216.63484375 198.403125 215.8671875 199.09375 C214.88105469 199.91359375 214.88105469 199.91359375 213.875 200.75 C213.33359375 201.20761719 212.7921875 201.66523438 212.234375 202.13671875 C205.46467255 205.10786594 197.08210799 202.17309938 190.25 200.625 C166.20426169 195.22605121 141.27006368 195.40617779 117.375 201.75 C107.40937655 204.32950366 107.40937655 204.32950366 103.125 203.0625 C96.9882564 199.11931581 91.83286957 193.94471704 86.77734375 188.72265625 C84.45876047 186.3931104 81.97229473 184.28230844 79.484375 182.13671875 C76.52635643 179.53620905 73.63807375 176.86518981 70.75 174.1875 C66.08636137 169.86542928 61.39126636 165.58343441 56.65234375 161.34375 C54.30413588 159.22419297 51.98225853 157.07832961 49.66455078 154.92553711 C39.73224084 144.46101674 39.73224084 144.46101674 27.125 139.0625 C23.63865399 140.68405629 22.28197806 141.82703292 20.125 145.0625 C19.82037779 147.91649467 19.82037779 147.91649467 19.86671448 151.21154785 C19.85988647 152.49870193 19.85305847 153.78585602 19.84602356 155.11201477 C19.84844302 156.54147367 19.85102731 157.97093229 19.85375977 159.40039062 C19.84937346 160.90333844 19.84407166 162.40628383 19.83792114 163.90922546 C19.82641358 167.14715563 19.82096118 170.38502029 19.82003975 173.62297058 C19.81810157 178.74044773 19.80006298 183.85778903 19.77928162 188.97521973 C19.73006065 201.68557003 19.69918723 214.39595724 19.67797852 227.10638428 C19.66147134 236.98438872 19.63870444 246.86227691 19.59495777 256.74020338 C19.57313662 261.82992064 19.56512768 266.91941732 19.56735051 272.00917816 C19.56568715 275.1723964 19.55165982 278.33546985 19.53413773 281.49863625 C19.52852485 282.96802025 19.52806525 284.43743411 19.53307533 285.9068203 C19.53918767 287.90903602 19.52527636 289.91128334 19.51026917 291.91345215 C19.50725217 293.59587132 19.50725217 293.59587132 19.50417423 295.31227875 C19.125 298.0625 19.125 298.0625 17.73821926 299.91561127 C10.38864378 305.14065755 -6.00320121 301.99361491 -14.63665771 300.62457275 C-21.77933938 299.34141963 -28.86237078 297.79797567 -35.9375 296.1875 C-36.95164978 295.95713043 -37.96579956 295.72676086 -39.01068115 295.4894104 C-41.91796765 294.82117045 -44.82118054 294.13831814 -47.72265625 293.4453125 C-48.60273849 293.23683182 -49.48282074 293.02835114 -50.38957214 292.81355286 C-51.20082047 292.61356186 -52.01206879 292.41357086 -52.84790039 292.20751953 C-53.55620499 292.03431183 -54.26450958 291.86110413 -54.99427795 291.68264771 C-56.875 291.0625 -56.875 291.0625 -59.875 289.0625 C-60.84151636 286.16295093 -61.00200589 284.33331943 -61.00642776 281.31884193 C-61.01026891 280.33711813 -61.01411005 279.35539432 -61.0180676 278.3439213 C-61.01720112 277.26271396 -61.01633463 276.18150661 -61.01544189 275.0675354 C-61.01841302 273.92102174 -61.02138414 272.77450808 -61.0244453 271.59325159 C-61.03163223 268.40583183 -61.03430513 265.21844489 -61.03504276 262.03101826 C-61.03689247 258.59535428 -61.04443933 255.15970201 -61.05117798 251.7240448 C-61.06476465 244.20966519 -61.07078639 236.6952909 -61.07518864 229.18090105 C-61.07795019 224.4904052 -61.08218736 219.79991142 -61.08669281 215.10941696 C-61.09888534 202.12681775 -61.10918506 189.14422019 -61.1125679 176.16161537 C-61.11278747 175.33057978 -61.11300703 174.49954419 -61.11323325 173.64332571 C-61.11345153 172.81028692 -61.11366981 171.97724813 -61.1138947 171.11896574 C-61.11433817 169.430873 -61.11478473 167.74278025 -61.11523438 166.0546875 C-61.1154558 165.21733281 -61.11567723 164.37997811 -61.11590537 163.51724903 C-61.11985472 149.9443205 -61.13731298 136.37144561 -61.1605939 122.79853781 C-61.18429445 108.86875368 -61.19676914 94.93899649 -61.19793582 81.00919187 C-61.19885325 73.18593447 -61.20462274 65.36274699 -61.22275543 57.53950882 C-61.23813886 50.87889882 -61.24328728 44.21838034 -61.23501733 37.55775596 C-61.2311047 34.15864944 -61.23207004 30.75972733 -61.24607468 27.36064339 C-61.25870531 23.67741245 -61.25296547 19.99465888 -61.24249268 16.31143188 C-61.25054908 15.23468598 -61.25860548 14.15794008 -61.26690602 13.04856551 C-61.2045218 3.70548624 -61.2045218 3.70548624 -57.875 0.0625 C-55.10595376 -0.67729054 -52.83308544 -1.0680446 -50.015625 -1.30078125 C-48.84347443 -1.42334541 -48.84347443 -1.42334541 -47.64764404 -1.54838562 C-45.98768066 -1.71763853 -44.32655328 -1.87578751 -42.66455078 -2.02368164 C-40.17319088 -2.24570535 -37.68682222 -2.49930824 -35.19921875 -2.75976562 C-7.14699827 -5.59429162 -7.14699827 -5.59429162 0 0 Z "
        fill="#3371B5" transform="translate(98.875,54.9375)" />
    <path
        d="M0 0 C1.63487617 0.55526619 1.63487617 0.55526619 3.30278015 1.12174988 C4.21814041 1.42987673 4.21814041 1.42987673 5.1519928 1.74422836 C7.15962097 2.42173024 9.16415202 3.1079379 11.16874695 3.7943573 C12.59217934 4.2768597 14.01578229 4.75885918 15.43954468 5.24038696 C19.22323809 6.52197648 23.0041953 7.81145327 26.7844696 9.10308838 C29.89373405 10.16470066 33.00431011 11.22244135 36.11483955 12.28034019 C45.04685863 15.31866885 53.97381113 18.37165303 62.89794159 21.43306732 C64.66692305 22.03980752 66.43610649 22.64595877 68.20530701 23.25205994 C73.38155477 25.02609849 78.5551664 26.80714978 83.72132874 28.61036682 C85.09838067 29.09069063 86.47615794 29.56894056 87.85469055 30.04499817 C89.69501253 30.68195665 91.53163068 31.3295879 93.3679657 31.97795105 C94.33862976 32.31858582 95.30929382 32.65922058 96.30937195 33.01017761 C98.85379545 34.10818197 100.74779688 35.23425498 102.8054657 37.08732605 C104.00909154 40.77844531 104.1496486 42.38331556 102.4304657 45.89982605 C100.8054657 48.08732605 100.8054657 48.08732605 99.8054657 49.08732605 C92.20372765 49.66057663 86.31661492 47.97580874 79.1882782 45.4584198 C78.07333984 45.07698318 76.95840149 44.69554657 75.80967712 44.30255127 C72.17855118 43.05656283 68.5545619 41.79110021 64.9304657 40.52482605 C62.42254411 39.65914338 59.91423963 38.79456925 57.40556335 37.93107605 C52.32280741 36.17953529 47.24350517 34.41831866 42.16679382 32.64933777 C36.4035547 30.64154397 30.63589411 28.64704811 24.8651886 26.66082764 C19.96846722 24.97489643 15.07436553 23.28142625 10.1804657 21.58732605 C9.27604736 21.27504059 8.37162903 20.96275513 7.43980408 20.64100647 C4.90128099 19.76292832 2.36479641 18.87921613 -0.1710968 17.99357605 C-0.90294189 17.7412471 -1.63478699 17.48891815 -2.3888092 17.22894287 C-13.32816013 13.38688731 -13.32816013 13.38688731 -16.1945343 9.08732605 C-15.86648756 2.96378682 -15.86648756 2.96378682 -13.7570343 0.21232605 C-9.28734313 -3.00585159 -5.04954752 -1.44264861 0 0 Z "
        fill="#F39800" transform="translate(370.1945343017578,411.9126739501953)" />
    <path
        d="M0 0 C1.90838444 3.01323859 2.1875 5.32904442 2.1875 8.875 C-1.6182991 13.76979362 -5.7272701 15.30708499 -11.4140625 17.1171875 C-12.26735641 17.40249329 -13.12065033 17.68779907 -13.99980164 17.98175049 C-16.80812024 18.9178935 -19.62267328 19.83363304 -22.4375 20.75 C-25.40680973 21.73513193 -28.37430191 22.72561833 -31.34181213 23.71615601 C-33.39073949 24.39956534 -35.44025842 25.08120344 -37.49034119 25.76113892 C-48.41086056 29.38691597 -59.2689159 33.18649126 -70.125 37 C-76.68390409 39.30208849 -83.24526273 41.59678582 -89.8125 43.875 C-90.54430481 44.12995239 -91.27610962 44.38490479 -92.03009033 44.64758301 C-94.08951902 45.36267295 -96.151596 46.06945434 -98.21484375 46.7734375 C-99.94528931 47.36777588 -99.94528931 47.36777588 -101.71069336 47.97412109 C-106.0527731 49.235221 -109.33123383 49.47250216 -113.8125 48.875 C-116.19944556 46.95434148 -116.77389057 46.00185955 -117.6875 43 C-117.84176571 39.14335719 -117.15385146 37.91042916 -114.8125 34.875 C-112.02148438 33.41479492 -112.02148438 33.41479492 -108.40625 32.16796875 C-107.3763092 31.80532173 -107.3763092 31.80532173 -106.32556152 31.43534851 C-103.82739419 30.56289707 -101.32029327 29.71937315 -98.8125 28.875 C-96.7041235 28.15143738 -94.59607107 27.42693004 -92.48828125 26.70166016 C-85.75636533 24.39424422 -79.01443348 22.11694873 -72.2699852 19.84649277 C-66.34187526 17.85077828 -60.41487024 15.85178852 -54.48828125 13.8515625 C-53.84488108 13.63454618 -53.2014809 13.41752987 -52.53858376 13.1939373 C-44.68733109 10.54457062 -36.85187583 7.85762265 -29.04296875 5.0859375 C-28.28142487 4.81712265 -27.51988098 4.5483078 -26.73526001 4.27134705 C-23.39168791 3.09096244 -20.05316017 1.89962816 -16.72265625 0.68286133 C-15.60117188 0.28607178 -14.4796875 -0.11071777 -13.32421875 -0.51953125 C-12.39053467 -0.85831299 -11.45685059 -1.19709473 -10.49487305 -1.54614258 C-6.70044295 -2.36498246 -3.3331645 -2.06886072 0 0 Z "
        fill="#F39800" transform="translate(155.8125,412.125)" />
    <path
        d="M0 0 C1.64446861 -0.01292336 1.64446861 -0.01292336 3.32215881 -0.02610779 C6.95003797 -0.04883126 10.57714874 -0.04201708 14.20507812 -0.03295898 C16.72326895 -0.03819149 19.24145781 -0.0444666 21.75964355 -0.05174255 C27.03889197 -0.06215841 32.31794016 -0.05789614 37.59716797 -0.04296875 C43.69815612 -0.02604079 49.79842914 -0.041891 55.8993392 -0.07419163 C61.77163483 -0.10410292 67.64365322 -0.10607354 73.51600647 -0.09669304 C76.01352366 -0.0958715 78.51105554 -0.10277339 81.00852966 -0.11746407 C84.4971059 -0.13483852 87.98414265 -0.12042474 91.47265625 -0.09765625 C92.50862442 -0.10934845 93.54459259 -0.12104065 94.61195374 -0.13308716 C101.57219829 -0.04042745 101.57219829 -0.04042745 104.91296387 2.84632874 C106.71997308 6.51549837 106.31772363 8.64042344 105.23632812 12.53344727 C103.65746847 14.59282943 102.5449039 15.37915938 100.23632812 16.53344727 C98.79059638 16.6316726 97.34045777 16.66847039 95.8914032 16.67388916 C94.97873688 16.6795993 94.06607056 16.68530945 93.12574768 16.69119263 C92.12156296 16.69231049 91.11737823 16.69342834 90.08276367 16.69458008 C88.499664 16.70202744 88.499664 16.70202744 86.88458252 16.70962524 C83.38073076 16.72427275 79.87692427 16.73105332 76.37304688 16.73657227 C73.94407652 16.74232175 71.51510618 16.74807951 69.08613586 16.75384521 C63.98751615 16.76436269 58.88891224 16.77020042 53.7902832 16.77368164 C47.25305307 16.77916675 40.71603119 16.8031922 34.17886639 16.83165359 C29.15946338 16.85026637 24.14011065 16.85548486 19.12067604 16.85701752 C16.71050694 16.86004783 14.3003388 16.86808905 11.89020348 16.8812027 C8.51933275 16.89823376 5.14897232 16.89638984 1.77807617 16.88989258 C0.28090813 16.90371475 0.28090813 16.90371475 -1.24650574 16.91781616 C-6.74228609 16.88458852 -10.67281276 16.62430638 -14.76367188 12.53344727 C-15.34549835 5.43516421 -15.34549835 5.43516421 -13.40979004 2.43519592 C-9.22489411 -0.57246274 -5.02963158 -0.03168318 0 0 Z "
        fill="#F39800" transform="translate(51.763671875,374.466552734375)" />
    <path
        d="M0 0 C0.94210327 -0.00990463 1.88420654 -0.01980927 2.8548584 -0.03001404 C3.88147583 -0.02551239 4.90809326 -0.02101074 5.96582031 -0.01637268 C7.59565857 -0.02666756 7.59565857 -0.02666756 9.25842285 -0.03717041 C12.85372953 -0.0554873 16.44860194 -0.05159413 20.04394531 -0.0459137 C22.53971499 -0.05047281 25.03548342 -0.05577758 27.53125 -0.0617981 C32.76338668 -0.07073858 37.99541032 -0.06852823 43.22753906 -0.05836487 C49.27389848 -0.04687936 55.31981456 -0.0609668 61.36611557 -0.08776134 C67.18605576 -0.11258609 73.00582328 -0.1150973 78.82580566 -0.10864449 C81.30099221 -0.10849085 83.77618712 -0.11457001 86.25134277 -0.12693596 C89.70858986 -0.14177531 93.16485446 -0.13122016 96.62207031 -0.11402893 C97.64868774 -0.1236969 98.67530518 -0.13336487 99.73303223 -0.14332581 C106.65893925 -0.07102978 106.65893925 -0.07102978 109.92993164 2.2918396 C112.2598086 5.87175268 111.76172506 8.17766232 111.29394531 12.38768005 C109.48231264 15.06199495 108.41633454 15.34688364 105.29394531 16.38768005 C103.80554118 16.48060993 102.31333583 16.51825252 100.82203674 16.52139282 C99.44880753 16.5277903 99.44880753 16.5277903 98.0478363 16.53431702 C97.04567581 16.53386383 96.04351532 16.53341064 95.01098633 16.53294373 C93.42525818 16.53798164 93.42525818 16.53798164 91.80749512 16.54312134 C88.30426873 16.55263964 84.80109008 16.55457484 81.29785156 16.5556488 C78.86791463 16.55886056 76.4379779 16.56222457 74.00804138 16.56573486 C68.91119946 16.57172819 63.8143745 16.57357453 58.7175293 16.57298279 C52.17915481 16.57288111 45.64088878 16.58653876 39.10254002 16.603755 C34.08318072 16.61486018 29.06384778 16.61690246 24.04447746 16.61637306 C21.63348962 16.61755521 19.22250114 16.62199005 16.81152534 16.62970543 C13.44303865 16.63947616 10.07478914 16.63663882 6.70629883 16.63059998 C5.20609444 16.63902924 5.20609444 16.63902924 3.67558289 16.64762878 C2.75727692 16.6434343 1.83897095 16.63923981 0.89283752 16.63491821 C-0.30149226 16.63573536 -0.30149226 16.63573536 -1.51994991 16.63656902 C-3.99178299 16.35514976 -5.58773177 15.6743211 -7.70605469 14.38768005 C-9.78764489 11.7113498 -9.70193059 10.27014338 -9.58105469 6.82518005 C-8.70605469 3.38768005 -8.70605469 3.38768005 -6.94549561 1.69706631 C-4.38273439 0.19863682 -2.94788876 0.00876704 0 0 Z "
        fill="#F39800" transform="translate(363.7060546875,374.61231994628906)" />
    <path
        d="M0 0 C1.05960938 -0.00386719 2.11921875 -0.00773437 3.2109375 -0.01171875 C4.86996094 0.00568359 4.86996094 0.00568359 6.5625 0.0234375 C8.22152344 0.00603516 8.22152344 0.00603516 9.9140625 -0.01171875 C10.97367187 -0.00785156 12.03328125 -0.00398438 13.125 0 C14.58099609 0.00507568 14.58099609 0.00507568 16.06640625 0.01025391 C18.5625 0.3984375 18.5625 0.3984375 20.37353516 1.69433594 C22.47218912 4.70226297 22.1559554 7.94044802 21.5625 11.3984375 C20.4008038 14.38467197 18.85660344 17.04450457 17.1875 19.7734375 C16.775 20.48371094 16.3625 21.19398438 15.9375 21.92578125 C14.29587434 24.71654487 12.8618229 27.0991146 10.5625 29.3984375 C4.92255089 30.03520595 4.92255089 30.03520595 2.5625 29.3984375 C-2.81348754 23.73185604 -8.79511214 14.78021841 -9.0625 6.7734375 C-7.98663554 0.96376944 -5.68656774 0.01982369 0 0 Z "
        fill="#1D4B98" transform="translate(250.4375,363.6015625)" />
</svg>